<?xml version="1.0" encoding="UTF-8"?>
<svg xmlns="http://www.w3.org/2000/svg" xmlns:xlink="http://www.w3.org/1999/xlink" height="500.0"
    preserveAspectRatio="xMidYMid meet" version="1.0" viewBox="0.0 0.0 500.0 500.0" width="500.0"
    zoomAndPan="magnify">
    <g id="change1_1">
        <path
            d="M301.472,278.75C336.013,256.147,395.54,253.205,500,250c-104.46-3.205-163.987-6.147-198.528-28.75 c10.293-23.225,32.473-50.138,66.571-89.293c-39.155,34.098-66.069,56.278-89.293,66.571C256.147,163.987,253.205,104.46,250,0 c-3.205,104.46-6.147,163.987-28.75,198.528c-23.225-10.293-50.138-32.473-89.293-66.571c34.098,39.155,56.278,66.069,66.571,89.293 C163.987,243.853,104.46,246.795,0,250c104.46,3.205,163.987,6.147,198.528,28.75c-10.293,23.225-32.473,50.138-66.571,89.293 c39.155-34.098,66.069-56.278,89.293-66.571C243.853,336.013,246.795,395.54,250,500c3.205-104.46,6.147-163.987,28.75-198.528 c23.225,10.293,50.138,32.473,89.293,66.571C333.945,328.888,311.765,301.974,301.472,278.75z"
            fill="#F1F2F2" />
    </g>
</svg>