<?xml version="1.0" encoding="UTF-8"?>
<svg xmlns="http://www.w3.org/2000/svg" xmlns:xlink="http://www.w3.org/1999/xlink" height="256.0"
    preserveAspectRatio="xMidYMid" version="1.1" viewBox="0.0 0.0 256.0 256.0" width="256.0"
    zoomAndPan="magnify">
    <g>
        <polygon fill="#007ACC" points="0 128 0 0 128 0 256 0 256 128 256 256 128 256 0 256"
            transform="translate(128 128) scale(1 -1) translate(-128 -128)" />
        <path
            d="m146.66 223.44l0.08-10.49h-16.66-16.66v-47.34-47.34h-11.79-11.779v47.34 47.34h-16.661-16.66v10.28c0 5.69 0.122 10.45 0.284 10.57 0.122 0.16 20.399 0.24 44.986 0.2l44.74-0.12 0.12-10.44z"
            fill="#fff" transform="translate(101.63 176.14) rotate(180) translate(-101.63 -176.14)" />
        <path
            d="m206.57 234.27c6.5-1.62 11.46-4.51 16.01-9.22 2.35-2.52 5.85-7.11 6.13-8.21 0.08-0.33-11.05-7.8-17.8-11.99-0.24-0.16-1.21 0.9-2.31 2.52-3.29 4.8-6.75 6.87-12.03 7.23-7.76 0.53-12.76-3.53-12.72-10.32 0-1.99 0.29-3.17 1.1-4.79 1.71-3.54 4.88-5.65 14.83-9.96 18.33-7.88 26.17-13.08 31.05-20.48 5.44-8.25 6.66-21.41 2.96-31.2-4.06-10.65-14.14-17.88-28.32-20.28-4.39-0.77-14.79-0.65-19.51 0.2-10.28 1.83-20.03 6.91-26.04 13.57-2.36 2.6-6.95 9.39-6.67 9.88 0.13 0.16 1.18 0.81 2.36 1.5 1.14 0.65 5.45 3.13 9.51 5.49l7.35 4.26 1.55-2.27c2.15-3.29 6.87-7.8 9.71-9.31 8.17-4.3 19.38-3.69 24.91 1.26 2.36 2.16 3.33 4.39 3.33 7.68 0 2.97-0.36 4.27-1.91 6.5-1.99 2.85-6.05 5.25-17.59 10.24-13.21 5.69-18.9 9.23-24.1 14.84-3.01 3.25-5.85 8.45-7.03 12.8-0.98 3.61-1.22 12.67-0.45 16.33 2.73 12.76 12.36 21.66 26.25 24.3 4.51 0.85 15 0.53 19.43-0.57z"
            fill="#fff" transform="translate(194.58 176.19) scale(1 -1) translate(-194.58 -176.19)" />
    </g>
</svg>