<?xml version="1.0" encoding="UTF-8" standalone="no"?>
<svg xmlns="http://www.w3.org/2000/svg" xmlns:xlink="http://www.w3.org/1999/xlink" fill="#ff6b00"
    height="43.9" preserveAspectRatio="xMidYMid meet" version="1" viewBox="-1.4 228.0 502.4 43.9"
    width="502.4" zoomAndPan="magnify">
    <g id="change1_1">
        <path
            d="M 499.21875 265.097656 C 487.507812 254.660156 468.703125 253.453125 454.046875 250.832031 C 437.664062 247.898438 421.230469 245.09375 404.746094 242.878906 C 375.824219 238.988281 346.757812 236.140625 317.679688 233.996094 C 253.460938 229.261719 188.871094 228.035156 124.660156 232.707031 C 83.894531 235.671875 43.105469 239.777344 3.308594 249.640625 C -1.433594 250.816406 -0.980469 257.285156 4.039062 257.359375 C 43.140625 257.921875 82.292969 253.226562 121.367188 251.664062 C 160.269531 250.109375 199.257812 249.292969 238.195312 249.859375 C 286.972656 250.574219 335.734375 253.613281 384.273438 258.972656 C 402.949219 261.035156 421.628906 263.140625 440.265625 265.585938 C 459.382812 268.09375 478.382812 271.929688 497.609375 269.417969 C 499.511719 269.171875 500.960938 266.648438 499.21875 265.097656"
            fill="inherit" />
    </g>
</svg>